:SAMPLES-PER-SECOND 30
:FULLY-SPECIFIED
:DEGREES
344
root  40.0475 38.0661 20.296 10.6443 76.9295 -2.51532
RightUpLeg  -40.0235 -15.0246 -3.89104
RightLeg  13.7387 -2.30389 0.637232
RightFoot  3.92611 -0.999881 7.65566
RightToes  0.00048216 0.542163 -0.142577
Spine  52.3276 -2.89403 6.8442
Spine1  15.2153 1.61815 -2.25277
HEad  -26.6019 -10.183 -3.17203
LeftShoulder1  10.3272 -23.5192 -32.0451
LeftArm  -24.5664 -43.6123 -24.04
LeftForeArm  19.9544 -5.88543 -3.6239
LeftHand  -0.25398 0.0180481 5.50724
RightShoulder  4.79457 13.5423 21.83
RightArm  -20.8957 48.2628 18.8464
RightForeArm  1.33978 4.07081 7.17079
RightHand  -1.25846 3.46171 -16.7055
LeftUpLeg  -43.0831 22.851 -14.7699
LeftLeg  24.2499 -0.132041 0.272859
LeftFoot  2.84616 -1.52035 12.0313
LeftToes  1.06244e-005 4.65856e-005 -8.18505e-006
345
root  40.3915 37.8387 21.1779 14.5078 80.0291 -0.79039
RightUpLeg  -42.0216 -15.1641 -4.34897
RightLeg  12.7556 -1.23003 2.29613
RightFoot  7.86947 -1.00567 6.30822
RightToes  0.00048216 0.542163 -0.142577
Spine  55.2965 -3.63161 7.97447
Spine1  14.1315 1.43571 -1.87886
HEad  -29.1688 -12.0712 -1.10089
LeftShoulder1  10.0053 -24.688 -29.263
LeftArm  -26.9901 -48.8631 -22.1623
LeftForeArm  19.6334 -4.86895 -3.31785
LeftHand  -0.25398 0.0180481 5.50724
RightShoulder  4.82214 14.3582 20.6117
RightArm  -24.9382 49.29 13.0524
RightForeArm  -0.910195 3.27964 7.04579
RightHand  -1.34879 4.35419 -16.3181
LeftUpLeg  -46.2439 21.3162 -14.8352
LeftLeg  27.1212 -1.3188 -0.392288
LeftFoot  2.09923 -1.44121 12.0709
LeftToes  1.06244e-005 4.65856e-005 -8.18505e-006
346
root  40.732 37.5576 22.0679 16.4928 83.0819 -0.941467
RightUpLeg  -46.4883 -19.7807 0.465202
RightLeg  16.4749 2.31409 2.56361
RightFoot  11.429 -0.643152 3.56865
RightToes  0.00048216 0.542163 -0.142577
Spine  58.3489 -4.69194 9.57134
Spine1  12.7608 1.41814 -1.96727
HEad  -32.2654 -13.3986 1.12689
LeftShoulder1  9.62861 -25.6249 -26.7406
LeftArm  -30.6509 -54.2668 -18.5248
LeftForeArm  19.2462 -3.77243 -2.96738
LeftHand  -0.25398 0.0180481 5.50724
RightShoulder  4.95155 15.6107 19.4305
RightArm  -29.9852 49.6676 6.03725
RightForeArm  -3.41218 2.01437 6.7512
RightHand  -1.22544 4.77361 -14.2709
LeftUpLeg  -49.7854 20.1769 -14.5787
LeftLeg  30.4614 -1.81342 -0.798937
LeftFoot  0.967277 -1.24757 11.4677
LeftToes  1.06244e-005 4.65856e-005 -8.18505e-006
347
root  41.0959 37.2879 22.9104 13.5108 85.4612 -6.45627
RightUpLeg  -52.3089 -23.6369 6.83283
RightLeg  21.3499 5.36126 1.95978
RightFoot  11.2963 -0.098405 0.848311
RightToes  0.00048216 0.542163 -0.142577
Spine  61.2432 -5.87417 11.1162
Spine1  11.5046 1.86638 -2.89385
HEad  -35.8095 -13.9818 2.87173
LeftShoulder1  9.39839 -26.2614 -25.1931
LeftArm  -36.8165 -59.4361 -11.9154
LeftForeArm  18.6946 -2.95593 -2.4944
LeftHand  -0.25398 0.0180481 5.50724
RightShoulder  5.01294 16.9187 17.9501
RightArm  -36.3318 49.8648 -1.35733
RightForeArm  -5.78537 0.36145 5.97648
RightHand  -0.994446 4.86207 -11.5953
LeftUpLeg  -54.0653 20.2513 -14.9762
LeftLeg  33.5556 -1.14066 -0.447962
LeftFoot  -0.132113 -1.04998 10.6776
LeftToes  1.06244e-005 4.65856e-005 -8.18505e-006
348
root  41.4671 37.0618 23.7057 6.089 86.6434 -17.1231
RightUpLeg  -57.1138 -22.5262 9.11201
RightLeg  25.4349 3.7329 1.70508
RightFoot  8.31364 0.28197 -1.29995
RightToes  0.00048216 0.542163 -0.142577
Spine  63.9416 -6.2003 11.849
Spine1  9.77542 2.79094 -3.74291
HEad  -38.8289 -14.3762 3.81846
LeftShoulder1  9.57151 -27.0918 -24.8531
LeftArm  -45.2157 -63.3338 -2.64227
LeftForeArm  17.3381 -2.79189 -2.08164
LeftHand  -0.25398 0.0180481 5.50724
RightShoulder  5.00744 17.922 16.6551
RightArm  -43.2238 49.8737 -8.91956
RightForeArm  -8.62985 -1.23461 4.97113
RightHand  -0.879316 5.13305 -10.0576
LeftUpLeg  -59.3843 21.6678 -17.025
LeftLeg  35.8845 0.681156 0.900134
LeftFoot  -0.84787 -0.944425 10.3126
LeftToes  1.06244e-005 4.65856e-005 -8.18505e-006
349
root  41.8657 36.8646 24.467 0.989075 87.554 -25.5169
RightUpLeg  -61.5602 -21.6076 11.4084
RightLeg  28.5315 2.70593 1.3591
RightFoot  5.68949 0.515882 -3.1702
RightToes  0.00048216 0.542163 -0.142577
Spine  66.737 -5.8667 11.8684
Spine1  7.32916 3.54605 -3.72725
HEad  -40.6579 -14.9317 4.26268
LeftShoulder1  10.0835 -28.4482 -25.1124
LeftArm  -54.3189 -65.3329 7.62718
LeftForeArm  15.1143 -3.162 -1.77725
LeftHand  -0.25398 0.0180481 5.50724
RightShoulder  4.96324 18.5722 15.6965
RightArm  -49.3988 49.4328 -16.1448
RightForeArm  -11.8831 -2.44094 4.10435
RightHand  -0.813479 5.45828 -9.07238
LeftUpLeg  -64.3767 22.9813 -20.0444
LeftLeg  37.2698 2.73637 2.60307
LeftFoot  -1.70115 -0.860119 10.2938
LeftToes  1.06244e-005 4.65856e-005 -8.18505e-006
350
root  42.3102 36.6645 25.1669 -15.0036 88.8857 -44.5824
RightUpLeg  -65.6343 -21.3228 13.3938
RightLeg  31.27 1.57553 0.786635
RightFoot  4.16447 0.698872 -4.91564
RightToes  0.00048216 0.542163 -0.142577
Spine  68.8179 -6.66505 11.5797
Spine1  6.10821 3.11411 -5.0616
HEad  -42.323 -13.923 5.49376
LeftShoulder1  9.16171 -28.6374 -21.9144
LeftArm  -64.1282 -65.8612 17.6617
LeftForeArm  11.6922 -3.73256 -1.0347
LeftHand  -0.25398 0.0180481 5.50724
RightShoulder  4.9041 19.824 14.0693
RightArm  -55.7292 49.1645 -21.6598
RightForeArm  -14.2738 -3.40565 2.84989
RightHand  -0.61517 5.47071 -6.94363
LeftUpLeg  -68.0256 23.0873 -22.5334
LeftLeg  37.8301 3.83904 3.56787
LeftFoot  -3.11248 -0.719527 10.2318
LeftToes  1.06244e-005 4.65856e-005 -8.18505e-006
